<svg xmlns="http://www.w3.org/2000/svg" viewBox="0 0 1658.97 463.77"><title>logo</title><path d="M985.29,489.22c0,73.34-49.61,134.62-116.39,150.19-5.43,79.18-72.72,141.77-154.9,141.77-66.06,0-122.4-40.46-144.85-97.43a136.34,136.34,0,0,0,110.4,56.09c62.58,0,115.26-41.91,131.07-98.81-38.76-6.73-72.4-28.77-94.84-59.9-27.4,37.6-71,61.92-120,61.92-82.68,0-149.62-68.89-149.62-154s66.95-154,149.62-154A145.92,145.92,0,0,1,688,367.87c-13.78,20.35-18.56,28.78-27.88,44.66,3.24,34-14.34,43.85-31.45,43.85A30.57,30.57,0,0,1,615.59,398a84.15,84.15,0,0,0-21.39-2.68C543.86,395.35,503,438,503,490.59s40.86,95.24,91.19,95.24,92-42.48,92-95.08c0-3.73.57-7.78,0.16-11.34,4.86-80.49,69.88-144.2,149.3-144.2C918.32,335.21,985.29,404.18,985.29,489.22Zm-59.33.72a98,98,0,0,0-18.72-57.79,30.93,30.93,0,1,1-45.07-33.06,87.73,87.73,0,0,0-27.47-4.39c-50.34,0-91.2,42.64-91.2,95.24a94.48,94.48,0,0,0,1.06,14.51v0.08c6.73,45.71,44.58,80.65,90.14,80.65C885,585.18,926,542.55,926,489.94Z" transform="translate(-446.11 -335.05)" fill="#44b0e5"/><path d="M1819.24,640.87V498.11c-1.38-10.5-6.54-32-25.14-45.63l29.11-27.9L1844,451.45a96.73,96.73,0,0,1,16-14.8,0.94,0.94,0,0,0,.52-0.34,69.44,69.44,0,0,1,43-15.33c25.3,0,50.11,13.95,61.64,34.78,11.18-20.66,34.44-34.78,60.1-34.78,50.09,0,78.87,42,79.37,75.59h0.35V639.3h-41.85V504c-3.78-21.19-16.18-37.88-36.68-37.88-24.45,0-37.36,15.5-41.15,38.05V641.55h-42V507.42c-3.26-23.42-19.79-41.85-41.15-41.85-10.15,0-19.46,4.3-26.85,11-7.58,7.58-13.79,18.94-13.79,35.82V640.87h-42.36Z" transform="translate(-446.11 -335.05)" fill="#ef7d00"/><path d="M1623.65,533.59c0,2.76-.19,5.52-0.35,8.27-0.17-2.25-.34-4.66-0.34-6.89a56.7,56.7,0,0,1,.51-7.58C1623.65,529.45,1623.65,531.52,1623.65,533.59Z" transform="translate(-446.11 -335.05)" fill="#ef7d00"/><path d="M1582.14,534.28c0,2.24-.17,4.64-0.33,6.89-0.19-2.25-.36-4.49-0.36-6.89a45.91,45.91,0,0,1,.36-7.06C1582,529.63,1582.14,531.87,1582.14,534.28Z" transform="translate(-446.11 -335.05)" fill="#ef7d00"/><path d="M1689.07,601.77c36.34,0,65.95-30,65.95-66.8s-29.61-66.64-65.95-66.64a66.2,66.2,0,0,0-65.61,59.05A56.7,56.7,0,0,0,1623,535c0,2.24.17,4.64,0.34,6.89C1626.74,575.42,1654.8,601.77,1689.07,601.77Zm0-180.1c59.41,0,107.62,50.27,107.62,112.61s-48.21,112.61-107.62,112.61c-35.81,0-67.33-18.24-86.78-46.14-19.64,27.55-50.8,45.45-86.26,45.45-59.41,0-107.62-50.28-107.62-112.61S1456.62,421,1516,421c27.55,0,52.51,10.85,71.63,28.58l-27.37,35.3A65.46,65.46,0,0,0,1516,467.64c-36.33,0-65.95,29.79-65.95,66.64s29.61,66.8,65.95,66.8c34.09,0,62.32-26.16,65.78-59.74v-0.17c0.17-2.25.33-4.66,0.33-6.89,0-2.41-.17-4.64-0.33-7.06C1585.07,468.16,1631.73,421.67,1689.07,421.67Z" transform="translate(-446.11 -335.05)" fill="#ef7d00"/><path d="M1390.67,371.71a27.29,27.29,0,1,1-27.37-27.21A27.33,27.33,0,0,1,1390.67,371.71Z" transform="translate(-446.11 -335.05)" fill="#ef7d00"/><path d="M1384.13,420.61V640.87h-42V420.61h0.5c5,5.68,12.22,6.55,20.31,6.55,8.27,0,15.51-.87,20.5-6.55h0.69Z" transform="translate(-446.11 -335.05)" fill="#ef7d00"/><path d="M1271.87,421c29.43-.34,38.74,0,38.74,0v39.09h-31.86s-42,6.38-42,50.62V639h-42V502.42s-0.33-33.4-25.49-51.66l29.11-28.06,20.83,26.86S1242.42,421.32,1271.87,421Z" transform="translate(-446.11 -335.05)" fill="#ef7d00"/><rect x="655.64" y="18.43" width="49.6" height="286.34" fill="#ef7d00"/><path d="M1135.35,724.2a11.74,11.74,0,0,1-.15,2,5,5,0,0,1-.42,1.37,2.14,2.14,0,0,1-.6.78,1.4,1.4,0,0,1-.81.24H1113v46.77a1.41,1.41,0,0,1-.24.83,1.94,1.94,0,0,1-.78.56,5.34,5.34,0,0,1-1.51.35,18.92,18.92,0,0,1-2.46.13,18.55,18.55,0,0,1-2.41-.13,5.84,5.84,0,0,1-1.53-.35,1.74,1.74,0,0,1-.78-0.56,1.51,1.51,0,0,1-.21-0.83V723.29a3.79,3.79,0,0,1,.81-2.67,2.94,2.94,0,0,1,2.25-.87h27.23a1.3,1.3,0,0,1,.81.27,2.6,2.6,0,0,1,.6.85,5.44,5.44,0,0,1,.42,1.37A10.75,10.75,0,0,1,1135.35,724.2Z" transform="translate(-446.11 -335.05)" fill="#44b0e5"/><path d="M1195.42,747.53a48.78,48.78,0,0,1-1.54,12.74,27.86,27.86,0,0,1-4.51,9.59,20.19,20.19,0,0,1-7.36,6.08,22.67,22.67,0,0,1-10,2.13,18.66,18.66,0,0,1-4.45-.48,18,18,0,0,1-4-1.49,24.24,24.24,0,0,1-3.87-2.58c-1.29-1.06-2.65-2.28-4.09-3.67v27a1.48,1.48,0,0,1-.25.84,1.62,1.62,0,0,1-.78.6,5.28,5.28,0,0,1-1.5.37,23.44,23.44,0,0,1-2.46.12,22.88,22.88,0,0,1-2.41-.12,5.76,5.76,0,0,1-1.54-.37,1.5,1.5,0,0,1-.78-0.6,1.64,1.64,0,0,1-.21-0.84V721.32a1.89,1.89,0,0,1,.17-0.87,1.5,1.5,0,0,1,.72-0.59,4.53,4.53,0,0,1,1.38-.32,17.69,17.69,0,0,1,2-.1,17.41,17.41,0,0,1,2.08.1,4.49,4.49,0,0,1,1.35.32,1.65,1.65,0,0,1,.75.59,1.57,1.57,0,0,1,.21.87v7.28a53.94,53.94,0,0,1,4.75-4.39,28.73,28.73,0,0,1,4.6-3.11,21.89,21.89,0,0,1,4.75-1.86,20.83,20.83,0,0,1,5.14-.63,20.61,20.61,0,0,1,10,2.28,19,19,0,0,1,6.77,6.26,27.84,27.84,0,0,1,3.83,9.22A50.1,50.1,0,0,1,1195.42,747.53Zm-10.29,1.14a50.29,50.29,0,0,0-.64-8,23.31,23.31,0,0,0-2.18-6.89,13.13,13.13,0,0,0-4.14-4.81,11.14,11.14,0,0,0-6.48-1.79,12.87,12.87,0,0,0-3.81.58,14.92,14.92,0,0,0-3.81,1.79,26.57,26.57,0,0,0-4,3.25,49.16,49.16,0,0,0-4.47,5v21.52a42.05,42.05,0,0,0,7.8,7.64,13.06,13.06,0,0,0,7.74,2.65,11.26,11.26,0,0,0,6.45-1.8,13.52,13.52,0,0,0,4.35-4.81,23.69,23.69,0,0,0,2.46-6.74A36.29,36.29,0,0,0,1185.13,748.67Z" transform="translate(-446.11 -335.05)" fill="#44b0e5"/><path d="M1235,776.92l-7.21,19.89a2.73,2.73,0,0,1-1.84,1.48,14.19,14.19,0,0,1-4.49.53,17.18,17.18,0,0,1-2.51-.15,3.39,3.39,0,0,1-1.47-.52,1.27,1.27,0,0,1-.57-1,3.1,3.1,0,0,1,.3-1.44l7.44-18.83a3,3,0,0,1-1-.79,3,3,0,0,1-.67-1.14l-19.3-51.7a6.47,6.47,0,0,1-.47-2,1.54,1.54,0,0,1,.47-1.16,3.17,3.17,0,0,1,1.57-.57,21.11,21.11,0,0,1,2.89-.15c1.2,0,2.14,0,2.83.1a5.75,5.75,0,0,1,1.63.32,1.75,1.75,0,0,1,.87.7,10.27,10.27,0,0,1,.57,1.23l15.45,43.41h0.17l14.92-43.65a2.73,2.73,0,0,1,.87-1.47,3.89,3.89,0,0,1,1.54-.49,20.81,20.81,0,0,1,2.95-.15,19.8,19.8,0,0,1,2.75.15,3.35,3.35,0,0,1,1.61.57,1.46,1.46,0,0,1,.5,1.16,5.59,5.59,0,0,1-.37,1.79Z" transform="translate(-446.11 -335.05)" fill="#44b0e5"/><path d="M1311.73,775.41a1.35,1.35,0,0,1-.25.83,1.8,1.8,0,0,1-.77.56,5.46,5.46,0,0,1-1.51.35,18.35,18.35,0,0,1-2.41.13,18.81,18.81,0,0,1-2.45-.13,5.9,5.9,0,0,1-1.54-.35,2,2,0,0,1-.81-0.56,1.35,1.35,0,0,1-.23-0.83V728.17H1276v47.24a1.35,1.35,0,0,1-.23.83,2.09,2.09,0,0,1-.81.56,5.9,5.9,0,0,1-1.54.35,21.59,21.59,0,0,1-4.81,0,5.6,5.6,0,0,1-1.52-.35,1.8,1.8,0,0,1-.79-0.56,1.45,1.45,0,0,1-.22-0.83V723.29a3.76,3.76,0,0,1,.82-2.67,3,3,0,0,1,2.26-.87h39.62a2.83,2.83,0,0,1,2.21.87,3.83,3.83,0,0,1,.78,2.67v52.12Z" transform="translate(-446.11 -335.05)" fill="#44b0e5"/><path d="M1375.84,775.41a1.46,1.46,0,0,1-.25.83,1.86,1.86,0,0,1-.79.56,5.12,5.12,0,0,1-1.51.35,18.26,18.26,0,0,1-2.39.13,19.05,19.05,0,0,1-2.46-.13,6.07,6.07,0,0,1-1.54-.35,2.09,2.09,0,0,1-.81-0.56,1.35,1.35,0,0,1-.23-0.83V728.17h-25.79v47.24a1.36,1.36,0,0,1-.25.83,2,2,0,0,1-.81.56,5.57,5.57,0,0,1-1.54.35,21.46,21.46,0,0,1-4.79,0,5.9,5.9,0,0,1-1.54-.35,1.71,1.71,0,0,1-.77-0.56,1.43,1.43,0,0,1-.22-0.83V723.29a3.74,3.74,0,0,1,.83-2.67,2.9,2.9,0,0,1,2.24-.87h39.62a2.79,2.79,0,0,1,2.21.87,3.83,3.83,0,0,1,.8,2.67v52.12Z" transform="translate(-446.11 -335.05)" fill="#44b0e5"/><path d="M1435,775.48a1.2,1.2,0,0,1-.49,1.07,3.12,3.12,0,0,1-1.31.56,13.1,13.1,0,0,1-2.48.18,13.8,13.8,0,0,1-2.48-.18,2.87,2.87,0,0,1-1.36-.56,1.3,1.3,0,0,1-.42-1.07v-5.42a26.93,26.93,0,0,1-7.91,5.91,21.18,21.18,0,0,1-9.22,2.09,25.4,25.4,0,0,1-7.75-1.1,16.58,16.58,0,0,1-5.88-3.22,14.34,14.34,0,0,1-3.79-5.17,17,17,0,0,1-1.36-7,15.94,15.94,0,0,1,1.88-7.93,15.7,15.7,0,0,1,5.33-5.6,26.43,26.43,0,0,1,8.55-3.34,53.25,53.25,0,0,1,11.37-1.1h7.46V739.4a21.12,21.12,0,0,0-.66-5.53,9.76,9.76,0,0,0-2.14-4,9,9,0,0,0-3.82-2.41,17.92,17.92,0,0,0-5.77-.81,22.51,22.51,0,0,0-6.59.87,35.3,35.3,0,0,0-5.12,1.93c-1.47.7-2.68,1.33-3.67,1.91a5.16,5.16,0,0,1-2.2.89,1.39,1.39,0,0,1-.84-0.26,2,2,0,0,1-.64-0.72,4.22,4.22,0,0,1-.38-1.22,10.17,10.17,0,0,1-.12-1.67,11.15,11.15,0,0,1,.2-2.38,3.46,3.46,0,0,1,1-1.64,12.61,12.61,0,0,1,2.78-1.84,30.49,30.49,0,0,1,4.58-1.93,43,43,0,0,1,5.65-1.45,35.58,35.58,0,0,1,6.2-.56,32.18,32.18,0,0,1,9.92,1.32,16.19,16.19,0,0,1,6.6,3.88,15,15,0,0,1,3.67,6.35A31.06,31.06,0,0,1,1435,739v36.5Zm-9.85-24.71h-8.48a31.5,31.5,0,0,0-7.09.7,14.41,14.41,0,0,0-5,2,8.33,8.33,0,0,0-2.92,3.24,9.78,9.78,0,0,0-.94,4.35,8.73,8.73,0,0,0,2.68,6.7c1.78,1.68,4.27,2.5,7.48,2.5a13.91,13.91,0,0,0,7.25-2,31.81,31.81,0,0,0,7-6.07V750.77Z" transform="translate(-446.11 -335.05)" fill="#44b0e5"/><path d="M1525.16,775.83a1,1,0,0,1-.2.63,1.52,1.52,0,0,1-.77.45,6.93,6.93,0,0,1-1.5.27,27.5,27.5,0,0,1-5.12,0,9.3,9.3,0,0,1-1.73-.32,2.24,2.24,0,0,1-1-.55,1.87,1.87,0,0,1-.42-0.76l-5.77-14a30.52,30.52,0,0,0-2.32-4.66,11.63,11.63,0,0,0-2.86-3.17,10.88,10.88,0,0,0-3.67-1.74,19,19,0,0,0-4.69-.54H1491v24.36a0.86,0.86,0,0,1-.3.59,2,2,0,0,1-.91.47,7.71,7.71,0,0,1-1.58.31,16.6,16.6,0,0,1-2.21.13,16.87,16.87,0,0,1-2.23-.13,7.22,7.22,0,0,1-1.56-.31,1.76,1.76,0,0,1-.87-0.47,0.88,0.88,0,0,1-.27-0.59v-55a0.77,0.77,0,0,1,.27-0.57,1.92,1.92,0,0,1,.87-0.45,7,7,0,0,1,1.56-.27,21.63,21.63,0,0,1,2.23-.1,21.29,21.29,0,0,1,2.21.1,7.44,7.44,0,0,1,1.58.27,2.27,2.27,0,0,1,.91.45,0.76,0.76,0,0,1,.3.57v22.66h4.19a16.31,16.31,0,0,0,4.19-.51,10,10,0,0,0,3.45-1.69,11.92,11.92,0,0,0,2.8-3,24.91,24.91,0,0,0,2.26-4.51l5-12.43a2.41,2.41,0,0,1,.44-0.85,2.26,2.26,0,0,1,.91-0.61,5.69,5.69,0,0,1,1.57-.32c0.67-.07,1.54-0.1,2.63-0.1a22.47,22.47,0,0,1,2.36.1,5.46,5.46,0,0,1,1.44.27,1.37,1.37,0,0,1,.7.45,1,1,0,0,1,.17.57A4.57,4.57,0,0,1,1523,722a12.17,12.17,0,0,1-.47,1.39l-5.17,11.9a26.14,26.14,0,0,1-2.62,5.05,21.09,21.09,0,0,1-2.84,3.4,12.36,12.36,0,0,1-3,2.09,17.77,17.77,0,0,1-2.88,1.17v0.13a21.49,21.49,0,0,1,3.87,1.74,16,16,0,0,1,3.3,2.51,19.63,19.63,0,0,1,2.87,3.6,31.69,31.69,0,0,1,2.46,4.77l5.95,13.71a4,4,0,0,1,.35.78,3.84,3.84,0,0,1,.2.69c0,0.21.07,0.4,0.09,0.54S1525.16,775.72,1525.16,775.83Z" transform="translate(-446.11 -335.05)" fill="#44b0e5"/><path d="M1588.47,747.76a40.87,40.87,0,0,1-1.74,12.19,26.63,26.63,0,0,1-5.2,9.58,23.62,23.62,0,0,1-8.66,6.29,30.2,30.2,0,0,1-12.05,2.24,31.27,31.27,0,0,1-11.64-2,21.28,21.28,0,0,1-8.27-5.78,24.55,24.55,0,0,1-4.93-9.2,42.88,42.88,0,0,1-1.61-12.25,41.63,41.63,0,0,1,1.71-12.18,26.39,26.39,0,0,1,5.17-9.59,23.36,23.36,0,0,1,8.63-6.25A30.35,30.35,0,0,1,1562,718.6a31.23,31.23,0,0,1,11.63,2,20.81,20.81,0,0,1,8.26,5.76,24.6,24.6,0,0,1,5,9.2A41.75,41.75,0,0,1,1588.47,747.76Zm-10.27.66a41.25,41.25,0,0,0-.82-8.31,21,21,0,0,0-2.7-6.85,13.71,13.71,0,0,0-5.09-4.66,19.47,19.47,0,0,0-15.62-.14,14.11,14.11,0,0,0-5.24,4.42,20,20,0,0,0-3.09,6.77,34.17,34.17,0,0,0-1,8.53,40.64,40.64,0,0,0,.82,8.37,19.44,19.44,0,0,0,2.72,6.82,13.57,13.57,0,0,0,5.14,4.63,17,17,0,0,0,8,1.73,17.19,17.19,0,0,0,7.59-1.58,13.87,13.87,0,0,0,5.28-4.39,19.15,19.15,0,0,0,3-6.72A35.93,35.93,0,0,0,1578.2,748.43Z" transform="translate(-446.11 -335.05)" fill="#44b0e5"/><path d="M1671.41,774.88a1.88,1.88,0,0,1-.84,1.86,7.87,7.87,0,0,1-3.66.56c-1,0-1.83,0-2.46-.07a6.13,6.13,0,0,1-1.51-.24,1.52,1.52,0,0,1-.75-0.52,2.16,2.16,0,0,1-.27-0.87L1658,744c-0.12-1.12-.23-2.33-0.35-3.61s-0.26-2.58-.37-3.9-0.23-2.65-.34-4-0.2-2.56-.32-3.72l-0.07-1.37c-0.36,1.15-.74,2.38-1.14,3.65s-0.83,2.6-1.28,3.92-0.91,2.63-1.33,4-0.81,2.56-1.17,3.73l-11.36,32a5.61,5.61,0,0,1-.57,1.21,2.55,2.55,0,0,1-.9.77,4.17,4.17,0,0,1-1.44.42,15,15,0,0,1-2.15.13,14,14,0,0,1-2.1-.13,4.48,4.48,0,0,1-1.41-.38,2.55,2.55,0,0,1-.93-0.76,4.24,4.24,0,0,1-.6-1.21l-10.95-32.09c-0.4-1.12-.81-2.33-1.23-3.61s-0.85-2.58-1.27-3.94-0.82-2.66-1.23-4-0.76-2.57-1-3.72l-0.07,1.37c-0.11,1.16-.23,2.41-0.35,3.72s-0.26,2.65-.4,4-0.27,2.63-.42,3.9-0.25,2.49-.34,3.61l-3.72,31a3.71,3.71,0,0,1-.27,1.18,1.36,1.36,0,0,1-.83.65,5.48,5.48,0,0,1-1.55.3,24.92,24.92,0,0,1-2.53.1,16.91,16.91,0,0,1-2.37-.13,3,3,0,0,1-1.32-.42,1.28,1.28,0,0,1-.57-0.76,2.34,2.34,0,0,1,0-1.1l5.95-51.23a4.8,4.8,0,0,1,1.36-2.89,4.37,4.37,0,0,1,3.15-1h4.73a14.58,14.58,0,0,1,3,.27,5.44,5.44,0,0,1,2.12.94,5.3,5.3,0,0,1,1.46,1.77,16.87,16.87,0,0,1,1.15,2.8l8,23c0.44,1.39.91,2.81,1.38,4.24s0.94,2.82,1.35,4.21,0.82,2.73,1.21,4.05,0.72,2.58,1.05,3.79h0.13l1.1-3.94c0.38-1.39.79-2.78,1.24-4.21s0.89-2.83,1.34-4.24,0.92-2.75,1.36-4l8-22.9a16.51,16.51,0,0,1,1.05-2.62,5.2,5.2,0,0,1,3.42-2.83,10.8,10.8,0,0,1,2.86-.34h4.7a5.06,5.06,0,0,1,3.27.9,4,4,0,0,1,1.28,2.89Z" transform="translate(-446.11 -335.05)" fill="#44b0e5"/><path d="M1732,775.41a1.3,1.3,0,0,1-.24.83,1.91,1.91,0,0,1-.78.56,5.22,5.22,0,0,1-1.5.35,18.51,18.51,0,0,1-2.4.13,18.86,18.86,0,0,1-2.46-.13,5.51,5.51,0,0,1-1.52-.35,2,2,0,0,1-.82-0.56,1.44,1.44,0,0,1-.23-0.83V728.17h-25.8v47.24a1.37,1.37,0,0,1-.25.83,1.88,1.88,0,0,1-.8.56,5.78,5.78,0,0,1-1.53.35,18.77,18.77,0,0,1-2.41.13,18.5,18.5,0,0,1-2.4-.13,5.85,5.85,0,0,1-1.54-.35,1.81,1.81,0,0,1-.79-0.56,1.59,1.59,0,0,1-.2-0.83V723.29a3.83,3.83,0,0,1,.81-2.67,3,3,0,0,1,2.26-.87H1729a2.87,2.87,0,0,1,2.23.87,3.94,3.94,0,0,1,.78,2.67v52.12Z" transform="translate(-446.11 -335.05)" fill="#44b0e5"/><path d="M1791.2,775.48a1.2,1.2,0,0,1-.49,1.07,3.26,3.26,0,0,1-1.3.56,13.2,13.2,0,0,1-2.48.18,14,14,0,0,1-2.48-.18,2.83,2.83,0,0,1-1.36-.56,1.29,1.29,0,0,1-.42-1.07v-5.42a27,27,0,0,1-7.91,5.91,21.13,21.13,0,0,1-9.23,2.09,25.23,25.23,0,0,1-7.73-1.1,16.56,16.56,0,0,1-5.88-3.22,14.44,14.44,0,0,1-3.79-5.17,17.07,17.07,0,0,1-1.36-7,16.16,16.16,0,0,1,1.86-7.93,15.67,15.67,0,0,1,5.37-5.6,26.14,26.14,0,0,1,8.53-3.34,53.21,53.21,0,0,1,11.36-1.1h7.46V739.4a20.57,20.57,0,0,0-.67-5.53,9.38,9.38,0,0,0-2.13-4,9.15,9.15,0,0,0-3.82-2.41,17.82,17.82,0,0,0-5.76-.81,22.58,22.58,0,0,0-6.59.87,34.34,34.34,0,0,0-5.11,1.93c-1.46.7-2.68,1.33-3.67,1.91a5,5,0,0,1-2.2.89,1.42,1.42,0,0,1-.84-0.26,2.08,2.08,0,0,1-.63-0.72,4.48,4.48,0,0,1-.38-1.22,10.19,10.19,0,0,1-.11-1.67,11.09,11.09,0,0,1,.2-2.38,3.54,3.54,0,0,1,1-1.64,12.87,12.87,0,0,1,2.8-1.84,30.42,30.42,0,0,1,4.57-1.93,42.85,42.85,0,0,1,5.66-1.45,35.37,35.37,0,0,1,6.19-.56,32.23,32.23,0,0,1,9.92,1.32,16.25,16.25,0,0,1,6.6,3.88,14.85,14.85,0,0,1,3.67,6.35,30.81,30.81,0,0,1,1.14,8.84v36.5Zm-9.86-24.71h-8.48a31.37,31.37,0,0,0-7.09.7,14.42,14.42,0,0,0-5,2,8.3,8.3,0,0,0-2.92,3.24,9.75,9.75,0,0,0-.94,4.35,8.73,8.73,0,0,0,2.67,6.7c1.78,1.68,4.28,2.5,7.5,2.5a13.89,13.89,0,0,0,7.24-2,31.65,31.65,0,0,0,7-6.07V750.77Z" transform="translate(-446.11 -335.05)" fill="#44b0e5"/><path d="M1856.84,775.41a1.36,1.36,0,0,1-.23.83,2.07,2.07,0,0,1-.78.56,5.2,5.2,0,0,1-1.5.35,18.59,18.59,0,0,1-2.41.13,19,19,0,0,1-2.46-.13,5.54,5.54,0,0,1-1.5-.35,1.84,1.84,0,0,1-.77-0.56,1.32,1.32,0,0,1-.26-0.83V751.67h-27.58v23.75a1.38,1.38,0,0,1-.25.83,1.94,1.94,0,0,1-.78.56,5.45,5.45,0,0,1-1.5.35,18.94,18.94,0,0,1-2.46.13,18.27,18.27,0,0,1-2.4-.13,5.76,5.76,0,0,1-1.54-.35,1.78,1.78,0,0,1-.78-0.56,1.59,1.59,0,0,1-.2-0.83V721.32a1.54,1.54,0,0,1,.2-0.82,2,2,0,0,1,.78-0.61,4.84,4.84,0,0,1,1.54-.35,23.44,23.44,0,0,1,2.4-.1,24.3,24.3,0,0,1,2.46.1,4.59,4.59,0,0,1,1.5.35,2.27,2.27,0,0,1,.78.61,1.34,1.34,0,0,1,.25.82v22h27.58v-22a1.28,1.28,0,0,1,.26-0.82,2.14,2.14,0,0,1,.77-0.61,4.65,4.65,0,0,1,1.5-.35,24.35,24.35,0,0,1,2.46-.1,23.86,23.86,0,0,1,2.41.1,4.4,4.4,0,0,1,1.5.35,2.44,2.44,0,0,1,.78.61,1.32,1.32,0,0,1,.23.82v54.09Z" transform="translate(-446.11 -335.05)" fill="#44b0e5"/><path d="M1923.41,775.48a1.35,1.35,0,0,1-.23.78,1.63,1.63,0,0,1-.79.58,6,6,0,0,1-1.49.32,18.68,18.68,0,0,1-2.41.13,18.4,18.4,0,0,1-2.4-.13,7,7,0,0,1-1.55-.32,1.81,1.81,0,0,1-.86-0.58,1.52,1.52,0,0,1-.23-0.78V744.34c0-1.57,0-3.16.12-4.79s0.18-3.22.31-4.77a55.42,55.42,0,0,1-3,4.73c-1.1,1.54-2.21,3.07-3.33,4.59l-23,31.39c-0.27.32-.53,0.6-0.74,0.83a2.46,2.46,0,0,1-.85.57,4.1,4.1,0,0,1-1.3.3,15.17,15.17,0,0,1-1.93.1,14.93,14.93,0,0,1-2.17-.13,5.74,5.74,0,0,1-1.35-.32,1.52,1.52,0,0,1-.72-0.58,1.58,1.58,0,0,1-.2-0.78V721.25a1.39,1.39,0,0,1,1-1.39,5.15,5.15,0,0,1,1.54-.32,22.49,22.49,0,0,1,2.33-.1,11.78,11.78,0,0,1,4,.45,1.49,1.49,0,0,1,1.09,1.36v31.32c0,1.56-.06,3.11-0.12,4.66s-0.18,3.09-.3,4.61c0.92-1.52,1.84-3,2.8-4.49s1.94-2.89,3-4.29l23.27-31.81a4.94,4.94,0,0,1,.75-0.84,2.54,2.54,0,0,1,1-.58,4.88,4.88,0,0,1,1.36-.3,16.51,16.51,0,0,1,2-.1,18.92,18.92,0,0,1,2.13.1,4.37,4.37,0,0,1,1.39.32,1.7,1.7,0,0,1,.72.61,1.72,1.72,0,0,1,.2.85v54.16Z" transform="translate(-446.11 -335.05)" fill="#44b0e5"/><path d="M1990,775.48a1.35,1.35,0,0,1-.23.78,1.62,1.62,0,0,1-.79.58,6,6,0,0,1-1.49.32,18.68,18.68,0,0,1-2.42.13,18.38,18.38,0,0,1-2.4-.13,7.14,7.14,0,0,1-1.56-.32,1.81,1.81,0,0,1-.85-0.58,1.51,1.51,0,0,1-.23-0.78V744.34c0-1.57,0-3.16.12-4.79s0.18-3.22.31-4.77a55.86,55.86,0,0,1-3,4.73c-1.1,1.54-2.21,3.07-3.33,4.59l-23,31.39c-0.27.32-.53,0.6-0.74,0.83a2.42,2.42,0,0,1-.86.57,4,4,0,0,1-1.28.3,15.19,15.19,0,0,1-1.93.1,14.89,14.89,0,0,1-2.17-.13,5.71,5.71,0,0,1-1.35-.32,1.54,1.54,0,0,1-.72-0.58,1.58,1.58,0,0,1-.2-0.78V721.25a1.59,1.59,0,0,1,.2-0.79,1.56,1.56,0,0,1,.79-0.61,5.15,5.15,0,0,1,1.54-.32,22.49,22.49,0,0,1,2.33-.1,11.78,11.78,0,0,1,4,.45,1.48,1.48,0,0,1,1.08,1.36v31.32c0,1.56,0,3.11-.11,4.66s-0.18,3.09-.3,4.61c0.92-1.52,1.84-3,2.8-4.49s1.94-2.89,3-4.29l23.27-31.81a4.89,4.89,0,0,1,.75-0.84,2.46,2.46,0,0,1,1-.58,4.88,4.88,0,0,1,1.35-.3,16.74,16.74,0,0,1,2-.1,18.92,18.92,0,0,1,2.13.1,4.4,4.4,0,0,1,1.39.32,1.71,1.71,0,0,1,.72.61,1.73,1.73,0,0,1,.2.85v54.16Zm-5.28-79.72a20.12,20.12,0,0,1-1,6.43,14.07,14.07,0,0,1-3.25,5.26,15.32,15.32,0,0,1-5.72,3.54,24.2,24.2,0,0,1-8.48,1.29,25.6,25.6,0,0,1-8-1.14,15.51,15.51,0,0,1-5.76-3.27,13.61,13.61,0,0,1-3.48-5.21,18.88,18.88,0,0,1-1.18-6.9,2.14,2.14,0,0,1,.22-1,1.45,1.45,0,0,1,.77-0.67,6.7,6.7,0,0,1,1.51-.34,16.64,16.64,0,0,1,2.24-.13,14.35,14.35,0,0,1,2.29.15,3.6,3.6,0,0,1,1.3.45,1.51,1.51,0,0,1,.6.78,4,4,0,0,1,.15,1.14,10.13,10.13,0,0,0,.6,3.55,7.54,7.54,0,0,0,1.82,2.84,8.46,8.46,0,0,0,3,1.86,11.48,11.48,0,0,0,4,.65,11.11,11.11,0,0,0,3.94-.65,8.24,8.24,0,0,0,2.91-1.86,7.87,7.87,0,0,0,1.81-2.89,11.18,11.18,0,0,0,.58-3.62,3.28,3.28,0,0,1,.15-1.05,1.47,1.47,0,0,1,.61-0.74,3.49,3.49,0,0,1,1.26-.45,13.26,13.26,0,0,1,2.2-.15,17.78,17.78,0,0,1,2.37.13,6.6,6.6,0,0,1,1.51.34,1.63,1.63,0,0,1,.8.67A2,2,0,0,1,1984.67,695.76Z" transform="translate(-446.11 -335.05)" fill="#44b0e5"/></svg>